# xmcd CD database file
#
# Track frame offsets:
#	150
#	26752
#	33502
#	43397
#	47976
#	54330
#	65785
#	72532
#	105302
#	117175
#	121792
#	133097
#	143422
#	167065
#	177857
#	190962
#	218840
#	226667
#	230140
#
# Disc length: 3222 seconds
#
# Revision: 0
# Processed by: cddbd v1.5.2PL0 Copyright (c) Steve Scherf et al.
# Submitted via: CDex 1.70beta2
#
DISCID=170c9413
DTITLE=Jonas Schoen Travesia - Tango Film Score ...For Jazz Band
DYEAR=2006
DGENRE=Jazz
TTITLE0=Main theme
TTITLE1=Caduco
TTITLE2=Bandoneon solo
TTITLE3=Overture
TTITLE4=Improvisation
TTITLE5=Musica funebre
TTITLE6=Bandoneon solo 2
TTITLE7=Traversia
TTITLE8=Variation+fuga
TTITLE9=Variation on main theme
TTITLE10=Musica funebre 2
TTITLE11=Improvisation 2
TTITLE12=Traversia 2
TTITLE13=Interlude
TTITLE14=Variation+fuga+improvisation
TTITLE15=Main theme 2
TTITLE16=Improvisation 3
TTITLE17=Bandoneon solo 3
TTITLE18=Finale
EXTD=YEAR: 2006
EXTT0=
EXTT1=
EXTT2=
EXTT3=
EXTT4=
EXTT5=
EXTT6=
EXTT7=
EXTT8=
EXTT9=
EXTT10=
EXTT11=
EXTT12=
EXTT13=
EXTT14=
EXTT15=
EXTT16=
EXTT17=
EXTT18=
PLAYORDER=
